<?xml version="1.0" encoding="UTF-8" standalone="no"?>
<svg
   xmlns:dc="http://purl.org/dc/elements/1.1/"
   xmlns:cc="http://creativecommons.org/ns#"
   xmlns:rdf="http://www.w3.org/1999/02/22-rdf-syntax-ns#"
   xmlns:svg="http://www.w3.org/2000/svg"
   xmlns="http://www.w3.org/2000/svg"
   xmlns:sodipodi="http://sodipodi.sourceforge.net/DTD/sodipodi-0.dtd"
   xmlns:inkscape="http://www.inkscape.org/namespaces/inkscape"
   version="1.1"
   id="Layer_1"
   x="0px"
   y="0px"
   viewBox="0 0 32 32"
   style="enable-background:new 0 0 32 32;"
   xml:space="preserve"
   sodipodi:docname="icon.svg"
   inkscape:version="1.0.2 (e86c870879, 2021-01-15)"><metadata
   id="metadata59"><rdf:RDF><cc:Work
       rdf:about=""><dc:format>image/svg+xml</dc:format><dc:type
         rdf:resource="http://purl.org/dc/dcmitype/StillImage" /><dc:title /></cc:Work></rdf:RDF></metadata><defs
   id="defs57">
	
	<linearGradient
   id="SVGID_3_"
   gradientUnits="userSpaceOnUse"
   x1="18.5778"
   y1="-10.7887"
   x2="16.3613"
   y2="30.8819"
   gradientTransform="matrix(1.4032976,0,0,1.4032976,-7.4530238,-5.8855715)">
		<stop
   offset="0"
   style="stop-color:#2ADE7A"
   id="stop20" />
		<stop
   offset="1"
   style="stop-color:#20B48D"
   id="stop22" />
	</linearGradient>
	
</defs><sodipodi:namedview
   pagecolor="#ffffff"
   bordercolor="#666666"
   borderopacity="1"
   objecttolerance="10"
   gridtolerance="10"
   guidetolerance="10"
   inkscape:pageopacity="0"
   inkscape:pageshadow="2"
   inkscape:window-width="1920"
   inkscape:window-height="1147"
   id="namedview55"
   showgrid="false"
   inkscape:zoom="22.96875"
   inkscape:cx="16"
   inkscape:cy="16"
   inkscape:window-x="0"
   inkscape:window-y="0"
   inkscape:window-maximized="1"
   inkscape:current-layer="Layer_1"
   inkscape:document-rotation="0" />
<style
   type="text/css"
   id="style2">
	.st0{fill:url(#SVGID_1_);}
	.st1{fill:url(#SVGID_2_);}
	.st2{fill:url(#SVGID_3_);}
	.st3{fill:url(#SVGID_4_);}
	.st4{fill:url(#SVGID_5_);}
	.st5{fill:url(#SVGID_6_);}
</style>
<path
   class="st2"
   d="m 24.401831,15.725212 c 0,-7.0164886 -4.350222,-11.0860516 -7.858466,-14.3136361 L 16.403036,1.271246 c -0.28066,-0.28065945 -0.841979,-0.4209892 -1.262968,-0.1403297 -0.42099,0.1403297 -0.70165,0.5613191 -0.70165,0.9823084 0,3.508244 -1.403297,5.7535201 -2.666265,7.9987963 -0.420989,0.561319 -0.701649,1.122639 -0.982308,1.824288 -0.701649,1.403296 -1.262968,2.806595 -1.262968,4.490552 0,0.140329 0,0.280659 0,0.420989 0,0 0,0 0,0 0,0.14033 0,0.280659 0,0.420989 0,0 0,0 0,0 0,0.14033 0,0.280659 0,0.42099 0,0 0,0 0,0 0,0.140329 0,0.280659 0,0.420989 0,0 0,0 0,0 0,0.14033 0,0.280659 0,0.420989 0,0 0,0 0,0 0,0.14033 0,0.280659 0,0.280659 0,0 0,0 0,0 0,0.14033 0,0.28066 0.1403292,0.28066 0,0 0,0 0,0 0,0.14033 0,0.14033 0.1403304,0.28066 0,0 0,0 0,0 0,0.140329 0,0.140329 0.1403293,0.280659 0,0 0,0 0,0 0,0.140329 0,0.140329 0.1403301,0.28066 0,0 0,0 0,0 0,0.140329 0.140329,0.140329 0.140329,0.28066 0,0 0,0 0,0 0,0.140329 0.14033,0.140329 0.14033,0.280659 0,0 0,0 0,0 0,0.140329 0.14033,0.140329 0.14033,0.280659 0,0 0,0 0,0 0,0.14033 0.14033,0.14033 0.14033,0.28066 0,0 0,0 0,0 0,0.14033 0.14033,0.14033 0.14033,0.280659 0,0 0,0 0,0 0,0.14033 0.140329,0.14033 0.140329,0.280659 0,0 0,0 0,0 0,0 0.14033,0.14033 0.14033,0.14033 0,0 0,0 0,0 0,0 0.140329,0.140331 0.140329,0.140331 0,0 0,0 0,0 0,0 0.140331,0.140329 0.140331,0.140329 0,0 0,0 0,0 0,0 0.140329,0.14033 0.140329,0.14033 0,0 0,0 0,0 0,0 0.140331,0.140329 0.140331,0.140329 0,0 0,0 0,0 0,0 0.140329,0.14033 0.140329,0.14033 0,0 0,0 0,0 0,0 0.140329,0.14033 0.140329,0.14033 0,0 0,0 0,0 0.14033,0 0.14033,0.140331 0.28066,0.140331 0,0 0,0 0,0 0.14033,0 0.14033,0.140329 0.28066,0.140329 0,0 0,0 0.14033,0 0.140329,0 0.140329,0.140329 0.280659,0.140329 0,0 0,0 0.14033,0 0.140329,0 0.140329,0 0.280659,0.14033 0,0 0,0 0.14033,0 0.14033,0 0.14033,0 0.280659,0.140329 0,0 0,0 0.140331,0 0,0 0.140329,0 0.140329,0 -0.841979,2.385607 -2.525936,4.771213 -5.6131901,5.613192 -0.2806595,0.140329 -0.561319,0.280659 -0.7016488,0.561319 -0.1403297,0.280659 -0.1403297,0.561318 0,0.701648 0,0 0,0 0,0 0,0 0,0 0,0 0.1403298,0.42099 0.561319,0.841978 1.1226382,0.841978 h 0.2806594 c 4.2098923,-1.122637 6.3148383,-4.209893 7.2971483,-7.437476 5.613189,1.122638 7.998795,-3.508245 7.998795,-7.858467 z"
   id="path25"
   style="fill:url(#SVGID_3_);stroke:#ffffff;stroke-width:1;stroke-opacity:1;stroke-miterlimit:4;stroke-dasharray:none" />
<g
   id="g52">
	<g
   id="g43">
		<linearGradient
   id="SVGID_4_"
   gradientUnits="userSpaceOnUse"
   x1="171.8257"
   y1="345.9363"
   x2="171.8257"
   y2="388.0145">
			<stop
   offset="0"
   style="stop-color:#1379E6"
   id="stop29" />
			<stop
   offset="1"
   style="stop-color:#115CCC"
   id="stop31" />
		</linearGradient>
		<path
   class="st3"
   d="M156.8,353.9v13v13c0,4.8,3.9,8.7,8.7,8.7h11.7c0.3,0,0.6-0.2,0.7-0.6l0.7-2.9c0.1-0.5-0.2-0.9-0.7-0.9h-12.4    c-2.4,0-4.3-1.9-4.3-4.3v-13v-13c0-2.4,1.9-4.3,4.3-4.3H184c0.2,0,0.4-0.1,0.6-0.3l2.1-2.9c0.3-0.5,0-1.1-0.6-1.1h-20.7    C160.7,345.2,156.8,349.1,156.8,353.9z"
   id="path34" />
		<linearGradient
   id="SVGID_5_"
   gradientUnits="userSpaceOnUse"
   x1="212.3563"
   y1="345.9363"
   x2="212.3563"
   y2="388.0145">
			<stop
   offset="0"
   style="stop-color:#1379E6"
   id="stop36" />
			<stop
   offset="1"
   style="stop-color:#115CCC"
   id="stop38" />
		</linearGradient>
		<path
   class="st4"
   d="M221.1,353.9h-0.7l0,0c0-4.8-3.9-8.7-8.7-8.7h-5.9c0,0.4-0.1,0.7-0.1,1.1l-0.5,2.4c-0.1,0.5,0.2,0.9,0.7,0.9    h5.9c2.4,0,4.3,1.9,4.3,4.3v1.4c0,1.6,1.3,2.9,2.9,2.9h1.4c0.8,0,1.4,0.6,1.4,1.4v7.2v7.2c0,0.8-0.6,1.4-1.4,1.4h-1.4    c-1.6,0-2.9,1.3-2.9,2.9v1.4c0,2.4-1.9,4.3-4.3,4.3h-10.2c-0.2,0-0.4,0.1-0.6,0.3l-2.2,2.9c-0.4,0.5,0,1.2,0.6,1.2h12.4    c4.8,0,8.7-3.9,8.7-8.7l0,0h0.7c2.8,0,5.1-2.3,5.1-5.1v-7.9V359C226.1,356.2,223.9,353.9,221.1,353.9z"
   id="path41" />
	</g>
	<linearGradient
   id="SVGID_6_"
   gradientUnits="userSpaceOnUse"
   x1="197.2749"
   y1="307.009"
   x2="192.2828"
   y2="400.8599">
		<stop
   offset="0"
   style="stop-color:#2ADE7A"
   id="stop45" />
		<stop
   offset="1"
   style="stop-color:#20B48D"
   id="stop47" />
	</linearGradient>
	<path
   class="st5"
   d="M206.6,366c0-11.3-7-17.8-12.6-23l-0.3-0.3c-0.5-0.5-1.3-0.6-1.9-0.3c-0.7,0.3-1.1,0.9-1.1,1.6   c0,5.7-2.2,9.3-4.3,12.9c-0.6,1-1.1,1.9-1.6,2.9c-1.2,2.2-2,4.5-2,7.2c0,0.2,0,0.4,0,0.7c0,0,0,0,0,0.1c0,0.2,0,0.4,0,0.6   c0,0,0,0.1,0,0.1c0,0.2,0,0.4,0,0.6c0,0,0,0.1,0,0.1c0,0.2,0,0.4,0.1,0.6c0,0,0,0.1,0,0.1c0,0.2,0.1,0.4,0.1,0.6c0,0,0,0,0,0.1   c0,0.2,0.1,0.4,0.1,0.5c0,0,0,0,0,0c0,0.2,0.1,0.4,0.1,0.5c0,0,0,0.1,0,0.1c0,0.2,0.1,0.3,0.1,0.5c0,0,0,0.1,0,0.1   c0,0.2,0.1,0.3,0.1,0.5c0,0,0,0.1,0,0.1c0.1,0.2,0.1,0.3,0.2,0.5c0,0,0,0.1,0,0.1c0.1,0.2,0.1,0.3,0.2,0.5c0,0,0,0,0,0.1   c0.1,0.1,0.1,0.3,0.2,0.4c0,0,0,0.1,0,0.1c0.1,0.1,0.1,0.3,0.2,0.4c0,0,0,0.1,0.1,0.1c0.1,0.1,0.1,0.3,0.2,0.4c0,0,0,0.1,0.1,0.1   c0.1,0.1,0.1,0.2,0.2,0.4c0,0,0,0.1,0.1,0.1c0.1,0.1,0.2,0.2,0.2,0.4c0,0,0,0.1,0.1,0.1c0.1,0.1,0.2,0.2,0.2,0.3c0,0,0,0.1,0.1,0.1   c0.1,0.1,0.2,0.2,0.3,0.3c0,0,0,0.1,0.1,0.1c0.1,0.1,0.2,0.2,0.3,0.3c0,0,0.1,0.1,0.1,0.1c0.1,0.1,0.2,0.2,0.3,0.3   c0,0,0.1,0.1,0.1,0.1c0.1,0.1,0.2,0.2,0.3,0.3c0,0,0.1,0,0.1,0.1c0.1,0.1,0.2,0.2,0.3,0.3c0,0,0.1,0,0.1,0.1   c0.1,0.1,0.2,0.1,0.3,0.2c0,0,0.1,0,0.1,0.1c0.1,0.1,0.2,0.1,0.3,0.2c0,0,0.1,0,0.1,0.1c0.1,0.1,0.2,0.1,0.4,0.2c0,0,0.1,0,0.1,0.1   c0.1,0.1,0.2,0.1,0.4,0.2c0,0,0.1,0,0.1,0.1c0.1,0.1,0.3,0.1,0.4,0.2c0,0,0.1,0,0.1,0c0.1,0,0.2,0.1,0.4,0.1c0,0,0.1,0,0.1,0   c0.1,0,0.2,0.1,0.3,0.1c-1.5,3.9-4.1,7.6-9,8.9c-0.5,0.1-1,0.5-1.2,1c-0.2,0.4-0.2,0.8-0.1,1.2c0,0,0,0.1,0,0.1c0,0,0,0,0,0   c0.2,0.8,0.9,1.3,1.7,1.3l0.5-0.1c6.7-1.8,10-6.8,11.7-11.9C202.8,380.5,206.6,372.9,206.6,366z"
   id="path50" />
</g>
</svg>
