<?xml version="1.0" encoding="UTF-8" standalone="no"?>
<!-- Created with Inkscape (http://www.inkscape.org/) -->

<svg
   width="64"
   height="64"
   viewBox="0 0 16.933333 16.933333"
   version="1.1"
   id="svg1"
   inkscape:version="1.3 (0e150ed6c4, 2023-07-21)"
   sodipodi:docname="pardus-power-manager.svg"
   xmlns:inkscape="http://www.inkscape.org/namespaces/inkscape"
   xmlns:sodipodi="http://sodipodi.sourceforge.net/DTD/sodipodi-0.dtd"
   xmlns="http://www.w3.org/2000/svg"
   xmlns:svg="http://www.w3.org/2000/svg">
  <sodipodi:namedview
     id="namedview1"
     pagecolor="#ffffff"
     bordercolor="#000000"
     borderopacity="0.25"
     inkscape:showpageshadow="2"
     inkscape:pageopacity="0.0"
     inkscape:pagecheckerboard="0"
     inkscape:deskcolor="#d1d1d1"
     inkscape:document-units="px"
     inkscape:zoom="6.592312"
     inkscape:cx="28.518068"
     inkscape:cy="35.420047"
     inkscape:window-width="1920"
     inkscape:window-height="1171"
     inkscape:window-x="0"
     inkscape:window-y="0"
     inkscape:window-maximized="1"
     inkscape:current-layer="layer1" />
  <defs
     id="defs1">
    <linearGradient
       id="SVGID_00000129901450951144020920000007753056098303935627_"
       gradientUnits="userSpaceOnUse"
       x1="-434.02811"
       y1="-74.135002"
       x2="-434.02811"
       y2="-49.8008"
       gradientTransform="matrix(1,0,0,-1,0,-121.5918)">&#10;		<stop
   offset="0"
   style="stop-color:#27AFD9"
   id="stop80" />
&#10;		<stop
   offset="1"
   style="stop-color:#42BDD9"
   id="stop81" />
&#10;	</linearGradient>
  </defs>
  <g
     inkscape:label="Layer 1"
     inkscape:groupmode="layer"
     id="layer1">
    <g
       id="g81"
       transform="matrix(0.26458333,0,0,0.26458333,123.21646,24.804687)">&#10;	<path
   class="st10"
   d="m -417.5,-66.2 c -0.3,-1.1 -0.8,-2.1 -1.3,-3.1 l 2.4,-3.4 c 0.6,-0.9 0.5,-2.1 -0.2,-2.9 l -2.5,-2.5 c -0.8,-0.8 -2,-0.9 -2.9,-0.3 l -3.5,2.3 c -1,-0.6 -2,-1 -3.1,-1.4 l -0.7,-4 c -0.2,-1.1 -1.1,-1.8 -2.2,-1.9 l -3.6,-0.1 c -1.1,0 -2,0.7 -2.3,1.8 l -0.9,4 c -0.4,0.1 -0.9,0.3 -1.3,0.5 v 0 c -0.7,0.3 -1.4,0.6 -2,0.9 l -3.4,-2.4 c -0.9,-0.6 -2.1,-0.5 -2.9,0.2 l -1.3,1.2 -1.3,1.3 c -0.8,0.8 -0.9,2 -0.3,2.9 l 2.3,3.5 c -0.6,1 -1,2 -1.4,3.1 l -4,0.7 c -1.1,0.2 -1.8,1.1 -1.9,2.2 l -0.1,3.6 c 0,1.1 0.7,2 1.8,2.3 l 4,0.9 c 0.3,1.1 0.8,2.1 1.3,3.1 l -2.4,3.4 c -0.6,0.9 -0.5,2.1 0.2,2.9 l 2.6,2.4 c 0.8,0.8 2,0.9 2.9,0.3 l 3.5,-2.3 c 1,0.6 2,1 3.1,1.4 l 0.7,4 c 0.2,1.1 1.1,1.8 2.2,1.9 l 3.6,0.1 c 1.1,0 2,-0.7 2.3,-1.8 l 0.9,-4 c 0.4,-0.1 0.9,-0.3 1.3,-0.5 v 0 c 0.7,-0.3 1.4,-0.6 2,-0.9 l 3.4,2.4 c 0.9,0.6 2.1,0.5 2.9,-0.2 l 1.3,-1.2 1.3,-1.3 c 0.8,-0.8 0.9,-2 0.3,-2.9 l -2.3,-3.5 c 0.6,-1 1,-2 1.4,-3.1 l 4,-0.7 c 1.1,-0.2 1.8,-1.1 1.9,-2.2 l 0.1,-3.6 c 0,-1.1 -0.7,-2 -1.8,-2.3 z"
   id="path76"
   style="fill:#ffffff" />
&#10;	<path
   class="st0"
   d="m -413.2,-66.7 -3.2,-0.7 c -0.2,-0.6 -0.5,-1.2 -0.8,-1.8 l 2,-2.8 c 1,-1.4 0.9,-3.4 -0.4,-4.7 l -2.5,-2.5 c -0.7,-0.7 -1.6,-1.1 -2.6,-1.1 -0.7,0 -1.4,0.2 -2,0.6 l -2.8,1.9 c -0.6,-0.3 -1.2,-0.6 -1.8,-0.8 l -0.6,-3.2 c -0.3,-1.7 -1.8,-3 -3.5,-3 l -3.6,-0.1 c -1.7,0 -3.2,1.2 -3.6,2.9 l -0.7,3.2 h -0.1 c -0.1,0 -0.1,0 -0.2,0 l -0.4,0.1 c -0.5,0.2 -0.9,0.4 -1.4,0.6 l -2.8,-2 c -0.6,-0.4 -1.4,-0.7 -2.1,-0.7 -1,0 -1.9,0.4 -2.6,1 l -2.5,2.5 c -1.2,1.2 -1.5,3.2 -0.5,4.6 l 1.9,2.8 c -0.3,0.6 -0.6,1.2 -0.8,1.8 l -3.2,0.6 c -1.7,0.3 -3,1.8 -3,3.5 l -0.1,3.6 c 0,1.7 1.2,3.3 2.9,3.6 l 3.2,0.7 c 0.2,0.6 0.5,1.2 0.8,1.8 l -2,2.8 c -1,1.4 -0.9,3.4 0.4,4.7 l 2.5,2.5 c 0.7,0.7 1.6,1.1 2.6,1.1 0.7,0 1.4,-0.2 2,-0.6 l 2.8,-1.9 c 0.6,0.3 1.2,0.6 1.8,0.8 l 0.6,3.2 c 0.3,1.7 1.8,3 3.5,3 l 3.6,0.1 c 1.7,0 3.2,-1.2 3.6,-2.9 l 0.7,-3.2 c 0,0 0,0 0.1,0 0.1,0 0.1,0 0.2,0 l 0.4,-0.1 c 0.5,-0.2 0.9,-0.4 1.4,-0.6 l 2.8,2 c 0.6,0.4 1.4,0.7 2.1,0.7 1,0 1.9,-0.4 2.6,-1 l 2.5,-2.5 c 1.2,-1.2 1.5,-3.2 0.5,-4.6 l -1.9,-2.8 c 0.3,-0.6 0.6,-1.2 0.8,-1.8 l 3.2,-0.6 c 1.7,-0.3 3,-1.8 3,-3.5 l 0.1,-3.6 c 0,-1.7 -1.2,-3.2 -2.9,-3.6 z"
   id="path77"
   style="opacity:0.3;fill:#ffffff;enable-background:new" />
&#10;	<path
   class="st12"
   d="m -417.5,-66.1 c -0.3,-1.1 -0.8,-2.1 -1.3,-3.1 l 2.4,-3.4 c 0.6,-0.9 0.5,-2.1 -0.2,-2.9 l -2.5,-2.5 c -0.8,-0.8 -2,-0.9 -2.9,-0.3 l -3.5,2.3 c -1,-0.6 -2,-1 -3.1,-1.4 l -0.7,-4 c -0.2,-1.1 -1.1,-1.8 -2.2,-1.9 l -3.6,-0.1 c -1.1,0 -2,0.7 -2.3,1.8 l -0.9,4 c -0.4,0.1 -0.9,0.3 -1.3,0.5 v 0 c -0.7,0.3 -1.4,0.6 -2,0.9 l -3.4,-2.4 c -0.9,-0.6 -2.1,-0.5 -2.9,0.2 l -1.3,1.2 -1.3,1.3 c -0.8,0.8 -0.9,2 -0.3,2.9 l 2.3,3.5 c -0.6,1 -1,2 -1.4,3.1 l -4,0.7 c -1.1,0.2 -1.8,1.1 -1.9,2.2 l -0.1,3.6 c 0,1.1 0.7,2 1.8,2.3 l 4,0.9 c 0.3,1.1 0.8,2.1 1.3,3.1 l -2.4,3.4 c -0.6,0.9 -0.5,2.1 0.2,2.9 l 2.5,2.5 c 0.8,0.8 2,0.9 2.9,0.3 l 3.5,-2.3 c 1,0.6 2,1 3.1,1.4 l 0.7,4 c 0.2,1.1 1.1,1.8 2.2,1.9 l 3.6,0.1 c 1.1,0 2,-0.7 2.3,-1.8 l 0.9,-4 c 0.4,-0.1 0.9,-0.3 1.3,-0.5 v 0 c 0.7,-0.3 1.4,-0.6 2,-0.9 l 3.4,2.4 c 0.9,0.6 2.1,0.5 2.9,-0.2 l 1.3,-1.2 1.3,-1.3 c 0.8,-0.8 0.9,-2 0.3,-2.9 l -2.3,-3.5 c 0.6,-1 1,-2 1.4,-3.1 l 4,-0.7 c 1.1,-0.2 1.8,-1.1 1.9,-2.2 l 0.1,-3.6 c 0,-1.1 -0.7,-2 -1.8,-2.3 z"
   id="path78"
   style="opacity:0.3;fill:#bbd8e8;enable-background:new" />
&#10;	<g
   id="g80">&#10;		<path
   class="st2"
   d="m -432.4,-39.2 v 0 l -3.6,-0.1 c -1.3,0 -2.3,-0.9 -2.6,-2.2 l -0.7,-3.8 c -0.9,-0.3 -1.9,-0.8 -2.8,-1.2 l -3.3,2.2 c -1.1,0.7 -2.5,0.5 -3.4,-0.4 l -2.5,-2.5 c -0.9,-0.9 -1,-2.3 -0.3,-3.4 l 2.3,-3.3 c -0.5,-0.9 -0.8,-1.8 -1.1,-2.8 l -3.8,-0.8 c -1.2,-0.3 -2.1,-1.4 -2.1,-2.6 l 0.1,-3.6 c 0,-1.3 0.9,-2.3 2.2,-2.6 l 3.8,-0.7 c 0.3,-0.9 0.8,-1.9 1.2,-2.8 l -2.2,-3.3 c -0.7,-1.1 -0.5,-2.5 0.4,-3.4 l 2.5,-2.5 c 0.9,-0.9 2.3,-1 3.4,-0.3 l 3.3,2.3 c 0.6,-0.3 1.2,-0.6 1.8,-0.8 l 0.4,-0.1 v 0 c 0.2,-0.1 0.5,-0.2 0.7,-0.3 l 0.8,-3.8 c 0.3,-1.2 1.4,-2.1 2.7,-2.1 l 3.6,0.1 c 1.3,0 2.3,0.9 2.6,2.2 l 0.7,3.8 c 0.9,0.3 1.9,0.8 2.8,1.2 l 3.3,-2.2 c 1.1,-0.7 2.5,-0.5 3.4,0.4 l 2.5,2.5 c 0.9,0.9 1,2.3 0.3,3.4 l -2.3,3.3 c 0.5,0.9 0.8,1.8 1.1,2.8 l 3.8,0.8 c 1.2,0.3 2.1,1.4 2.1,2.6 l -0.1,3.6 c 0,1.3 -0.9,2.3 -2.2,2.6 l -3.8,0.7 c -0.3,0.9 -0.8,1.9 -1.2,2.8 l 2.2,3.5 c 0.7,1.1 0.5,2.5 -0.4,3.4 l -2.5,2.5 c -0.9,0.9 -2.3,1 -3.4,0.3 l -3.3,-2.3 c -0.6,0.3 -1.2,0.6 -1.8,0.8 l -0.4,0.1 v 0 c -0.2,0.1 -0.5,0.2 -0.7,0.3 l -0.8,3.8 c -0.3,1.1 -1.4,1.9 -2.7,1.9 z m -9.6,-8.2 0.2,0.1 c 1,0.5 2,1 3.1,1.4 l 0.2,0.1 0.8,4.2 c 0.2,0.9 0.9,1.5 1.8,1.5 l 3.6,0.1 c 0.9,0 1.7,-0.6 1.9,-1.5 l 0.9,-4.2 0.2,-0.1 c 0.4,-0.1 0.8,-0.3 1.3,-0.4 l 0.4,-0.1 v 0 c 0.6,-0.2 1.1,-0.5 1.6,-0.7 l 0.2,-0.1 3.6,2.6 c 0.7,0.5 1.8,0.4 2.4,-0.2 l 2.5,-2.5 c 0.6,-0.6 0.8,-1.6 0.3,-2.4 l -2.4,-3.7 0.1,-0.2 c 0.5,-1 1,-2 1.4,-3.1 l 0.1,-0.2 4.2,-0.8 c 0.9,-0.2 1.5,-0.9 1.5,-1.8 l 0.1,-3.6 c 0,-0.9 -0.6,-1.7 -1.5,-1.9 l -4.2,-0.9 -0.1,-0.2 c -0.3,-1.1 -0.8,-2.1 -1.3,-3.1 l -0.1,-0.2 2.6,-3.6 c 0.5,-0.7 0.4,-1.8 -0.2,-2.4 l -2.5,-2.5 c -0.6,-0.6 -1.6,-0.8 -2.4,-0.3 l -3.7,2.4 -0.2,-0.1 c -1,-0.5 -2,-1 -3.1,-1.4 l -0.2,-0.1 -0.8,-4.2 c -0.2,-0.9 -0.9,-1.5 -1.8,-1.5 l -3.6,-0.1 c -0.9,0 -1.7,0.6 -1.9,1.5 l -0.9,4.2 -0.2,0.1 c -0.4,0.1 -0.8,0.3 -1.3,0.4 l -0.4,0.1 v 0 c -0.6,0.2 -1.1,0.5 -1.6,0.8 l -0.2,0.1 -3.6,-2.6 c -0.7,-0.5 -1.8,-0.4 -2.4,0.2 l -2.5,2.5 c -0.6,0.6 -0.8,1.6 -0.3,2.4 l 2.4,3.7 -0.1,0.2 c -0.5,1 -1,2 -1.4,3.1 l -0.1,0.2 -4.2,0.8 c -0.9,0.2 -1.5,0.9 -1.5,1.8 l -0.1,3.6 c 0,0.9 0.6,1.7 1.5,1.9 l 4.2,0.9 0.1,0.2 c 0.3,1.1 0.8,2.1 1.3,3.1 l 0.1,0.2 -2.6,3.6 c -0.5,0.7 -0.4,1.8 0.2,2.4 l 2.5,2.5 c 0.6,0.6 1.6,0.8 2.4,0.3 z"
   id="path79"
   style="fill:#2f3536" />
&#10;		<path
   class="st2"
   d="m -432.4,-38.6 v 0 l -3.6,-0.1 c -1.6,0 -2.9,-1.2 -3.2,-2.7 l -0.6,-3.5 c -0.7,-0.3 -1.5,-0.6 -2.2,-1 l -3,2 c -1.3,0.8 -3,0.7 -4.1,-0.5 l -2.5,-2.5 c -1.1,-1.1 -1.2,-2.9 -0.3,-4.2 l 2.1,-3 c -0.3,-0.7 -0.6,-1.5 -0.9,-2.2 l -3.4,-0.7 c -1.5,-0.3 -2.6,-1.7 -2.6,-3.3 l 0.1,-3.6 c 0,-1.6 1.2,-2.9 2.7,-3.2 l 3.4,-0.6 c 0.3,-0.7 0.6,-1.5 1,-2.2 l -2,-3 c -0.8,-1.3 -0.7,-3 0.5,-4.1 l 2.5,-2.5 c 1.1,-1.1 2.9,-1.2 4.2,-0.3 l 3,2.1 c 0.5,-0.2 1,-0.5 1.6,-0.7 l 0.8,-0.3 0.7,-3.4 c 0.3,-1.5 1.7,-2.6 3.3,-2.6 l 3.6,0.1 c 1.6,0 2.9,1.2 3.2,2.7 l 0.6,3.5 c 0.7,0.3 1.5,0.6 2.2,1 l 3,-2 c 1.3,-0.9 3,-0.7 4.1,0.5 l 2.5,2.5 c 1.1,1.1 1.2,2.9 0.3,4.2 l -2.1,3 c 0.3,0.7 0.6,1.5 0.9,2.2 l 3.4,0.7 c 1.5,0.3 2.6,1.7 2.6,3.3 l -0.1,3.6 c 0,1.6 -1.2,2.9 -2.7,3.2 l -3.4,0.6 c -0.3,0.7 -0.6,1.5 -1,2.2 l 2,3 c 0.8,1.3 0.7,3 -0.5,4.1 l -2.5,2.5 c -1.1,1.1 -2.9,1.2 -4.2,0.3 l -3,-2.1 c -0.5,0.2 -1,0.5 -1.6,0.7 l -0.8,0.3 -0.7,3.4 c -0.4,1.6 -1.7,2.6 -3.3,2.6 z m 0,-0.7 v 0.2 z m -9.7,-8.8 0.5,0.3 c 0.9,0.5 1.9,1 3,1.3 l 0.6,0.2 0.8,4.6 c 0.1,0.6 0.6,1 1.2,1 l 3.6,0.1 c 0.6,0 1.1,-0.4 1.3,-1 l 1,-4.6 0.6,-0.2 c 0.4,-0.1 0.8,-0.3 1.2,-0.4 l 0.8,-0.3 c 0.4,-0.2 0.8,-0.4 1.2,-0.6 l 0.5,-0.3 3.9,2.8 c 0.5,0.4 1.2,0.3 1.6,-0.1 l 2.5,-2.5 c 0.4,-0.4 0.5,-1.1 0.2,-1.6 l -2.6,-4 0.3,-0.5 c 0.5,-0.9 1,-1.9 1.3,-3 l 0.2,-0.6 4.6,-0.8 c 0.6,-0.1 1,-0.6 1,-1.2 l 0.1,-3.6 c 0,-0.6 -0.4,-1.1 -1,-1.3 l -4.6,-1 -0.2,-0.6 c -0.3,-1 -0.7,-2 -1.2,-3 l -0.3,-0.5 2.8,-3.9 c 0.4,-0.5 0.3,-1.2 -0.1,-1.6 l -2.5,-2.5 c -0.4,-0.4 -1.1,-0.5 -1.6,-0.2 l -4,2.6 -0.5,-0.3 c -0.9,-0.5 -1.9,-1 -3,-1.3 l -0.6,-0.2 -0.8,-4.6 c -0.1,-0.6 -0.6,-1 -1.2,-1 l -3.6,-0.1 c -0.6,0 -1.1,0.4 -1.3,1 l -1,4.6 -0.6,0.2 c -0.4,0.1 -0.8,0.3 -1.2,0.4 l -0.8,0.3 c -0.4,0.2 -0.7,0.3 -1.1,0.5 l -0.5,0.3 -3.9,-2.8 c -0.5,-0.4 -1.2,-0.3 -1.6,0.1 l -2.5,2.5 c -0.4,0.4 -0.5,1.1 -0.2,1.6 l 2.6,4 -0.3,0.5 c -0.5,0.9 -1,1.9 -1.3,3 l -0.2,0.6 -4.6,0.8 c -0.6,0.1 -1,0.6 -1,1.2 l -0.1,3.6 c 0,0.6 0.4,1.1 1,1.3 l 4.6,1 0.2,0.6 c 0.3,1 0.7,2 1.2,3 l 0.3,0.5 -2.8,3.9 c -0.4,0.5 -0.3,1.2 0.1,1.6 l 2.5,2.5 c 0.4,0.4 1.1,0.5 1.6,0.2 z"
   id="path80"
   style="fill:#2f3536" />
&#10;	</g>
&#10;	&#10;		<linearGradient
   id="linearGradient2"
   gradientUnits="userSpaceOnUse"
   x1="-434.02811"
   y1="-74.135002"
   x2="-434.02811"
   y2="-49.8008"
   gradientTransform="matrix(1,0,0,-1,0,-121.5918)">&#10;		<stop
   offset="0"
   style="stop-color:#27AFD9"
   id="stop1" />
&#10;		<stop
   offset="1"
   style="stop-color:#42BDD9"
   id="stop2" />
&#10;	</linearGradient>
&#10;	<path
   style="fill:url(#SVGID_00000129901450951144020920000007753056098303935627_)"
   d="m -434.6,-57.9 c -0.1,0 -0.2,0 -0.3,0 -2.1,0 -4.2,0 -6.3,0 -0.5,0 -0.8,-0.4 -0.5,-0.9 2.8,-4.8 5.5,-9.6 8.2,-14.4 0.1,-0.2 0.3,-0.4 0.6,-0.4 0.3,0 0.5,0.3 0.5,0.6 -0.1,0.7 -0.2,1.3 -0.3,2 -0.2,1.8 -0.5,3.6 -0.7,5.5 -0.1,0.4 -0.1,0.8 -0.2,1.3 0.1,0 0.2,0 0.3,0 2.1,0 4.3,0 6.4,0 0.6,0 0.8,0.4 0.5,0.9 -2.7,4.8 -5.4,9.5 -8,14.3 0,0.1 -0.1,0.1 -0.1,0.2 -0.1,0.2 -0.4,0.3 -0.6,0.3 -0.3,-0.1 -0.4,-0.3 -0.4,-0.6 0.1,-0.6 0.1,-1.2 0.2,-1.8 0.2,-1.7 0.3,-3.3 0.5,-5 0.1,-0.6 0.1,-1.1 0.2,-1.7 0,0 0,-0.1 0,-0.3 z"
   id="path81" />
&#10;</g>
  </g>
</svg>
