<?xml version="1.0" encoding="UTF-8" standalone="no"?>
<!-- Created with Inkscape (http://www.inkscape.org/) -->

<svg
   width="64"
   height="64"
   viewBox="0 0 16.933333 16.933333"
   version="1.1"
   id="svg1"
   inkscape:version="1.3 (0e150ed6c4, 2023-07-21)"
   sodipodi:docname="pardus-pm-performance.svg"
   xmlns:inkscape="http://www.inkscape.org/namespaces/inkscape"
   xmlns:sodipodi="http://sodipodi.sourceforge.net/DTD/sodipodi-0.dtd"
   xmlns="http://www.w3.org/2000/svg"
   xmlns:svg="http://www.w3.org/2000/svg">
  <sodipodi:namedview
     id="namedview1"
     pagecolor="#ffffff"
     bordercolor="#000000"
     borderopacity="0.25"
     inkscape:showpageshadow="2"
     inkscape:pageopacity="0.0"
     inkscape:pagecheckerboard="0"
     inkscape:deskcolor="#d1d1d1"
     inkscape:document-units="px"
     inkscape:zoom="4.6614685"
     inkscape:cx="7.9374128"
     inkscape:cy="37.005506"
     inkscape:window-width="1920"
     inkscape:window-height="1171"
     inkscape:window-x="0"
     inkscape:window-y="0"
     inkscape:window-maximized="1"
     inkscape:current-layer="layer1" />
  <defs
     id="defs1" />
  <g
     inkscape:label="Layer 1"
     inkscape:groupmode="layer"
     id="layer1">
    <g
       id="g136"
       transform="matrix(0.26458333,0,0,0.26458333,131.49791,25.175104)">&#10;	<path
   class="st24"
   d="m -476.6,-44.4 h 23.3 c 5.2,-3.7 8.7,-9.8 8.7,-16.6 0,-11.2 -9.1,-20.3 -20.3,-20.3 -11.2,0 -20.3,9.1 -20.3,20.3 -0.1,6.9 3.4,12.9 8.6,16.6 z"
   id="path134"
   style="opacity:0.5;fill:#b6b6b5" />
&#10;	<path
   class="st5"
   d="m -463.7,-64.6 c -2.1,-0.1 -3.9,1.5 -4,3.5 -0.1,1.2 0.4,2.2 1.2,3 0.6,0.6 1.4,1 2.3,1 0.4,0 0.8,0 1.3,-0.1 l 19.1,-2.4 -18.6,-4.7 c -0.5,-0.2 -0.9,-0.3 -1.3,-0.3 z"
   id="path135"
   style="fill:#2f3536" />
&#10;	<path
   class="st30"
   d="m -483,-43.7 c -4.3,-4.5 -7,-10.6 -7,-17.4 0,-13.8 11.2,-25 25,-25 13.8,0 25,11.2 25,25 0,6.7 -2.6,12.8 -7,17.3"
   id="path136"
   style="fill:none;stroke:#2f3536;stroke-width:4;stroke-linecap:round;stroke-miterlimit:10" />
&#10;	<line
   class="st30"
   x1="-475.89999"
   y1="-40.200001"
   x2="-453"
   y2="-40.200001"
   id="line136"
   style="fill:none;stroke:#2f3536;stroke-width:4;stroke-linecap:round;stroke-miterlimit:10" />
&#10;</g>
  </g>
</svg>
