<svg width="64" height="64" viewBox="0 0 64 64" fill="none" xmlns="http://www.w3.org/2000/svg">
<rect x="5" y="9" width="54" height="50" rx="8" fill="url(#paint0_linear_2689_60612)"/>
<rect x="5" y="5" width="54" height="50" rx="8" fill="#444444"/>
<rect x="5.7" y="5.7" width="52.6" height="48.6" rx="7.3" stroke="url(#paint1_linear_2689_60612)" stroke-width="1.4" style="mix-blend-mode:soft-light"/>
<g filter="url(#filter0_d_2689_60612)">
<path d="M33.8015 12.3312L33.8884 12.3361C34.0909 12.3569 34.2813 12.4468 34.4265 12.5919C34.5717 12.7371 34.6615 12.9276 34.6824 13.13L34.6873 13.2179V13.6007C34.6874 14.7462 35.4971 15.6873 36.5417 16.0265C37.5853 16.3652 38.7922 16.0804 39.4656 15.1554L39.6912 14.8458C39.8305 14.6579 40.0381 14.5323 40.2693 14.4962C40.4995 14.4603 40.735 14.5153 40.9246 14.6505V14.6515L43.8416 16.7697C44.0307 16.9073 44.1572 17.1148 44.1941 17.3458C44.2309 17.5763 44.175 17.8116 44.0388 18.0011L43.8123 18.3136C43.1392 19.2385 43.2395 20.4742 43.8826 21.3624C44.5264 22.2514 45.6711 22.7323 46.7605 22.38L47.1296 22.2609C47.3528 22.1891 47.5957 22.209 47.8044 22.3156C48.0129 22.4221 48.1711 22.6067 48.2439 22.8292L49.3572 26.254C49.4288 26.4765 49.41 26.7183 49.3044 26.9269C49.1992 27.1348 49.0164 27.2929 48.7957 27.3673L48.4275 27.4865C47.3373 27.8392 46.6891 28.8993 46.6892 29.9991C46.6893 31.0999 47.3389 32.16 48.4304 32.5118L48.783 32.6251C49.0072 32.6985 49.193 32.8585 49.3005 33.0685C49.4077 33.2779 49.4281 33.5209 49.3572 33.7452L48.2439 37.1691C48.1706 37.3919 48.0124 37.5771 47.8035 37.6837C47.5945 37.7903 47.3511 37.8098 47.1277 37.7384L46.7605 37.6193C45.6711 37.2669 44.5264 37.7479 43.8826 38.6368C43.2393 39.5251 43.1392 40.7606 43.8123 41.6857L44.0378 41.9962V41.9972C44.1748 42.187 44.231 42.4233 44.1941 42.6544C44.1571 42.8853 44.0305 43.092 43.8416 43.2296L40.9246 45.3478C40.7349 45.4834 40.4997 45.54 40.2693 45.504C40.0392 45.4681 39.8325 45.3429 39.6931 45.1564L39.4656 44.8448C38.7923 43.9196 37.5854 43.634 36.5417 43.9728C35.497 44.312 34.6873 45.2539 34.6873 46.3995V46.7833C34.6859 47.0175 34.5921 47.2417 34.4265 47.4073C34.2606 47.5732 34.0361 47.667 33.8015 47.6681H30.199C29.9642 47.6671 29.739 47.5733 29.573 47.4073C29.4278 47.2621 29.3379 47.0718 29.3171 46.8693L29.3123 46.7823V46.3995C29.3123 45.2538 28.5027 44.3119 27.4578 43.9728C26.4141 43.6341 25.2072 43.9196 24.5339 44.8448L24.3074 45.1564C24.168 45.3431 23.9605 45.4681 23.7302 45.504C23.4998 45.5399 23.2646 45.4834 23.075 45.3478L20.158 43.2296H20.1589C19.9697 43.092 19.8424 42.8855 19.8054 42.6544C19.7685 42.4233 19.8238 42.186 19.9607 41.9962L20.1882 41.6857C20.861 40.7606 20.7602 39.525 20.1169 38.6368C19.4731 37.748 18.3293 37.2671 17.24 37.6193L16.8699 37.7394C16.7595 37.7752 16.6428 37.7886 16.5271 37.7794C16.4114 37.7702 16.2984 37.7384 16.1951 37.6857C16.0917 37.6329 15.9998 37.5601 15.9246 37.4718C15.8493 37.3836 15.7924 37.2813 15.7566 37.171V37.17L14.6423 33.7452C14.5709 33.5228 14.5895 33.2809 14.6951 33.0724C14.8003 32.8646 14.9832 32.7064 15.2039 32.632L15.572 32.5128C16.6622 32.1602 17.3102 31.1009 17.3103 30.0011C17.3102 28.9002 16.6607 27.8392 15.5691 27.4874L15.2166 27.3741H15.2175C14.9931 27.3009 14.8066 27.1419 14.699 26.9318C14.5913 26.7216 14.5716 26.4771 14.6433 26.2521L14.6423 26.2511L15.7566 22.8292C15.7924 22.7188 15.8492 22.6158 15.9246 22.5275C15.9998 22.4394 16.0919 22.3673 16.1951 22.3146C16.2984 22.2618 16.4115 22.23 16.5271 22.2208C16.6428 22.2116 16.7594 22.2251 16.8699 22.2609L17.24 22.38C18.3293 22.7323 19.4731 22.2513 20.1169 21.3624C20.7601 20.4742 20.8612 19.2386 20.1882 18.3136L19.9607 18.0011C19.8246 17.8116 19.7687 17.5762 19.8054 17.3458C19.8424 17.1147 19.9697 16.9073 20.1589 16.7697L20.158 16.7687L23.075 14.6515C23.2642 14.5142 23.5002 14.4572 23.7312 14.4933C23.962 14.5294 24.169 14.6556 24.3074 14.8439V14.8429L24.5339 15.1554C25.2073 16.0805 26.4142 16.3652 27.4578 16.0265C28.5026 15.6873 29.3121 14.7463 29.3123 13.6007V13.2179C29.3132 12.9832 29.407 12.7579 29.573 12.5919C29.7182 12.4468 29.9086 12.3569 30.1111 12.3361L30.199 12.3312H33.8015ZM31.9998 19.3409C29.8919 19.341 27.8315 19.9668 26.0789 21.1378C24.3261 22.309 22.9598 23.9735 22.1531 25.921C21.3464 27.8686 21.1354 30.0117 21.5466 32.0792C21.9579 34.1467 22.973 36.0457 24.4636 37.5363C25.9542 39.0269 27.8531 40.042 29.9207 40.4532C31.9882 40.8645 34.1313 40.6535 36.0789 39.8468C38.0264 39.0401 39.6909 37.6737 40.8621 35.921C42.0331 34.1684 42.6579 32.108 42.658 30.0001V29.9991C42.6542 27.1737 41.5308 24.4648 39.533 22.4669C37.5351 20.469 34.8262 19.3447 32.0007 19.3409H31.9998Z" fill="#727272" stroke="url(#paint2_linear_2689_60612)" stroke-width="0.715671"/>
</g>
<circle cx="32.0001" cy="29.8354" r="10.8418" stroke="url(#paint3_linear_2689_60612)" stroke-width="0.513831"/>
<g filter="url(#filter1_d_2689_60612)">
<path d="M33.7638 16.5085C33.9045 16.2857 34.1884 16.198 34.4288 16.3015V16.3025C34.671 16.4068 34.802 16.6709 34.7374 16.9275L32.3751 26.3025L32.2941 26.6218H38.9757C39.0717 26.6218 39.1665 26.6482 39.2491 26.697C39.3314 26.7457 39.3992 26.8155 39.4454 26.8992C39.4918 26.9832 39.5147 27.0786 39.5118 27.1746C39.509 27.2704 39.481 27.364 39.4298 27.4451H39.4288L29.9122 42.5671C29.7709 42.7903 29.4898 42.8766 29.2472 42.7732C29.0352 42.6821 28.9082 42.4688 28.923 42.2449L28.9386 42.1482L31.3009 32.7732L31.381 32.4529H24.6993C24.6035 32.4528 24.5094 32.4274 24.4269 32.3787C24.3443 32.3299 24.2759 32.2595 24.2296 32.1755C24.1835 32.0916 24.1604 31.9968 24.1632 31.9011C24.1653 31.829 24.1822 31.7582 24.212 31.6931L24.2462 31.6306L33.7628 16.5076L33.7638 16.5085Z" fill="#9EEF18" stroke="#76B60C" stroke-width="0.513831"/>
</g>
<defs>
<filter id="filter0_d_2689_60612" x="13.2375" y="11.9738" width="37.5249" height="39.0656" filterUnits="userSpaceOnUse" color-interpolation-filters="sRGB">
<feFlood flood-opacity="0" result="BackgroundImageFix"/>
<feColorMatrix in="SourceAlpha" type="matrix" values="0 0 0 0 0 0 0 0 0 0 0 0 0 0 0 0 0 0 127 0" result="hardAlpha"/>
<feOffset dy="2.00893"/>
<feGaussianBlur stdDeviation="0.502232"/>
<feComposite in2="hardAlpha" operator="out"/>
<feColorMatrix type="matrix" values="0 0 0 0 0 0 0 0 0 0 0 0 0 0 0 0 0 0 0.3 0"/>
<feBlend mode="normal" in2="BackgroundImageFix" result="effect1_dropShadow_2689_60612"/>
<feBlend mode="normal" in="SourceGraphic" in2="effect1_dropShadow_2689_60612" result="shape"/>
</filter>
<filter id="filter1_d_2689_60612" x="21.6866" y="16.0017" width="20.3024" height="32.5912" filterUnits="userSpaceOnUse" color-interpolation-filters="sRGB">
<feFlood flood-opacity="0" result="BackgroundImageFix"/>
<feColorMatrix in="SourceAlpha" type="matrix" values="0 0 0 0 0 0 0 0 0 0 0 0 0 0 0 0 0 0 127 0" result="hardAlpha"/>
<feOffset dy="3.2994"/>
<feGaussianBlur stdDeviation="1.10987"/>
<feComposite in2="hardAlpha" operator="out"/>
<feColorMatrix type="matrix" values="0 0 0 0 0 0 0 0 0 0 0 0 0 0 0 0 0 0 0.5 0"/>
<feBlend mode="normal" in2="BackgroundImageFix" result="effect1_dropShadow_2689_60612"/>
<feBlend mode="normal" in="SourceGraphic" in2="effect1_dropShadow_2689_60612" result="shape"/>
</filter>
<linearGradient id="paint0_linear_2689_60612" x1="5.13334" y1="58.1673" x2="58.6414" y2="58.1673" gradientUnits="userSpaceOnUse">
<stop stop-color="#434342"/>
<stop offset="0.0414257" stop-color="#444443"/>
<stop offset="0.0815191" stop-color="#1D1C1D"/>
<stop offset="0.899024" stop-color="#1E1C1D"/>
<stop offset="0.952865" stop-color="#444443"/>
<stop offset="1" stop-color="#434343"/>
</linearGradient>
<linearGradient id="paint1_linear_2689_60612" x1="32" y1="1" x2="32" y2="61" gradientUnits="userSpaceOnUse">
<stop stop-color="white" stop-opacity="0.9"/>
<stop offset="1" stop-color="white" stop-opacity="0.1"/>
</linearGradient>
<linearGradient id="paint2_linear_2689_60612" x1="31.9999" y1="33.0042" x2="31.9999" y2="11.9738" gradientUnits="userSpaceOnUse">
<stop stop-color="#727271"/>
<stop offset="1" stop-color="#C4C4C4"/>
</linearGradient>
<linearGradient id="paint3_linear_2689_60612" x1="32.0001" y1="40.9342" x2="32.2266" y2="19.6427" gradientUnits="userSpaceOnUse">
<stop stop-color="#C3C3C3"/>
<stop offset="1" stop-color="#5D5D5D"/>
</linearGradient>
</defs>
</svg>
