<svg id="Layer_1" data-name="Layer 1" xmlns="http://www.w3.org/2000/svg" viewBox="0 0 64 64"><defs><style>.cls-1{fill:#2e3436;}</style></defs><path class="cls-1" d="M8.3,4.9c2.2.2,4.3.2,6.5.5q6,.8,12,1.8a54.3,54.3,0,0,1,14.3,4.6,34.2,34.2,0,0,1,9.1,6A23.3,23.3,0,0,1,56.6,28a24.4,24.4,0,0,1,1,8.9,36.2,36.2,0,0,1-3.3,12.5,1,1,0,0,0,0,.9l2.2,8.5a.4.4,0,0,1,.1.3h-3c-.1,0-.2-.3-.3-.4-.7-3.2-1.3-6.5-2.1-9.7a42.2,42.2,0,0,0-2-6c-.7-1.9-1.6-3.8-2.4-5.7h-.1l-3-5.5a45.9,45.9,0,0,0-6.5-8.2,37.1,37.1,0,0,0-7.9-6.3h-.4A46.3,46.3,0,0,1,39.8,29l.5.6h0a36.3,36.3,0,0,1,3.8,7.1,2.5,2.5,0,0,1,.4.9c1,2.8,2.1,5.6,3,8.5s.8,3.3,1.2,5,0,1-.7,1.1a50.2,50.2,0,0,1-5.4.8,21.4,21.4,0,0,1-10.8-2.2A23.8,23.8,0,0,1,24,44.6c-1.5-1.9-3-3.9-4.3-5.9s-1.6-2.9-2.4-4.3a.4.4,0,0,0-.1-.3l-.3-.7h-.1l-.2-.5c-.3-.7-2.3-5.6-2.8-7.3s-1.5-5.6-2.2-8.4a29.8,29.8,0,0,0-1.1-4A33.7,33.7,0,0,0,7.2,6.2L6.4,4.9Z"/></svg>